{
.appVersion = "3343";
.formatVersion = 3;
customParameters = (
{
name = fsType;
value = (
);
},
{
name = license;
value = "This Font Software is licensed under the SIL Open Font License, Version 1.1. This license is available with a FAQ at: http://scripts.sil.org/OFL";
},
{
name = licenseURL;
value = "http://scripts.sil.org/OFL";
},
{
name = "Use Typo Metrics";
value = 1;
},
{
name = "Disable Last Change";
value = 1;
},
{
name = "Use Line Breaks";
value = 1;
}
);
date = "2023-02-20 13:41:47 +0000";
familyName = Isometra;
featurePrefixes = (
{
automatic = 1;
code = "languagesystem DFLT dflt;
";
name = Languagesystems;
}
);
features = (
{
automatic = 1;
code = "lookupflag IgnoreMarks;
sub f f l by f_f_l;
sub f l by fl;
";
tag = liga;
}
);
fontMaster = (
{
id = m01;
metricValues = (
{
over = 16;
pos = 1000;
},
{
over = 16;
pos = 800;
},
{
over = 16;
pos = 600;
},
{
over = -16;
},
{
over = -16;
pos = -210;
},
{
}
);
name = Isometra;
}
);
glyphs = (
{
glyphname = A;
lastChange = "2025-04-18 17:54:29 +0000";
layers = (
{
layerId = m01;
shapes = (
{
closed = 1;
nodes = (
(401,800,l),
(459,700,l),
(115,100,l),
(30,0,l),
(420,0,l),
(362,100,l),
(391,150,l),
(767,150,l),
(796,100,l),
(739,0,l),
(1131,0,l),
(1042,100,l),
(696,700,l),
(754,800,l)
);
},
{
closed = 1;
nodes = (
(579,470,l),
(683,300,l),
(480,300,l)
);
}
);
width = 1161;
}
);
metricLeft = H;
metricRight = H;
unicode = 65;
},
{
glyphname = B;
lastChange = "2024-06-30 14:22:53 +0000";
layers = (
{
layerId = m01;
shapes = (
{
closed = 1;
nodes = (
(628,0,ls),
(752,0,o),
(853,100,o),
(853,225,cs),
(853,323,o),
(789,408,o),
(700,438,c),
(751,474,o),
(783,531,o),
(783,600,cs),
(783,710,o),
(694,800,o),
(583,800,cs),
(38,800,l),
(124,650,l),
(124,163,l),
(30,0,l)
);
},
{
closed = 1;
nodes = (
(349,325,l),
(544,325,ls),
(578,325,o),
(606,297,o),
(606,263,cs),
(606,228,o),
(578,200,o),
(544,200,cs),
(349,200,l)
);
},
{
closed = 1;
nodes = (
(349,600,l),
(529,600,ls),
(563,600,o),
(591,572,o),
(591,538,cs),
(591,503,o),
(563,475,o),
(529,475,cs),
(349,475,l)
);
}
);
width = 883;
}
);
metricLeft = H;
metricRight = H;
unicode = 66;
},
{
glyphname = C;
lastChange = "2025-04-18 17:41:07 +0000";
layers = (
{
layerId = m01;
shapes = (
{
closed = 1;
nodes = (
(622,-17,o),
(742,35,o),
(826,121,c),
(719,303,l),
(671,237,o),
(589,195,o),
(486,195,cs),
(362,195,o),
(262,287,o),
(262,400,cs),
(262,513,o),
(362,605,o),
(486,605,cs),
(579,605,o),
(667,557,o),
(702,486,c),
(814,693,l),
(730,769,o),
(615,818,o),
(486,818,cs),
(234,818,o),
(30,631,o),
(30,400,cs),
(30,169,o),
(234,-17,o),
(486,-17,cs)
);
}
);
width = 856;
}
);
metricLeft = H;
metricRight = H;
unicode = 67;
},
{
glyphname = D;
lastChange = "2025-04-17 14:40:04 +0000";
layers = (
{
layerId = m01;
shapes = (
{
closed = 1;
nodes = (
(504,0,ls),
(725,0,o),
(904,173,o),
(904,400,cs),
(904,628,o),
(725,800,o),
(504,800,cs),
(33,800,l),
(120,650,l),
(120,153,l),
(30,0,l)
);
},
{
closed = 1;
nodes = (
(351,200,l),
(351,600,l),
(477,600,ls),
(587,600,o),
(677,517,o),
(677,400,cs),
(677,284,o),
(587,200,o),
(477,200,cs)
);
}
);
width = 934;
}
);
metricLeft = H;
metricRight = H;
unicode = 68;
},
{
glyphname = E;
lastChange = "2024-06-30 14:22:53 +0000";
layers = (
{
layerId = m01;
shapes = (
{
closed = 1;
nodes = (
(30,800,l),
(117,653,l),
(117,153,l),
(30,0,l),
(895,0,l),
(736,282,l),
(692,203,l),
(347,203,l),
(347,328,l),
(563,328,l),
(664,503,l),
(347,503,l),
(347,626,l),
(678,626,l),
(708,579,l),
(840,800,l)
);
}
);
width = 925;
}
);
metricLeft = H;
metricRight = H;
unicode = 69;
},
{
glyphname = F;
kernRight = A;
lastChange = "2025-04-17 15:59:06 +0000";
layers = (
{
layerId = m01;
shapes = (
{
closed = 1;
nodes = (
(30,800,l),
(114,657,l),
(114,146,l),
(30,0,l),
(343,0,l),
(343,325,l),
(560,325,l),
(661,500,l),
(343,500,l),
(343,623,l),
(674,623,l),
(705,576,l),
(837,800,l)
);
}
);
width = 867;
}
);
metricLeft = H;
metricRight = H;
unicode = 70;
},
{
glyphname = G;
lastChange = "2025-04-18 17:41:19 +0000";
layers = (
{
layerId = m01;
shapes = (
{
closed = 1;
nodes = (
(947,0,l),
(724,388,l),
(502,388,l),
(598,221,l),
(563,206,o),
(523,198,o),
(478,198,cs),
(357,198,o),
(257,288,o),
(257,400,cs),
(257,511,o),
(357,601,o),
(478,601,cs),
(568,601,o),
(645,551,o),
(680,481,c),
(799,687,l),
(717,763,o),
(604,810,o),
(478,810,cs),
(230,810,o),
(30,626,o),
(30,400,cs),
(30,173,o),
(230,-10,o),
(478,-10,cs),
(559,-10,o),
(635,9,o),
(700,44,c),
(724,0,l)
);
}
);
width = 977;
}
);
metricLeft = H;
metricRight = H;
unicode = 71;
},
{
glyphname = H;
lastChange = "2024-06-30 14:22:41 +0000";
layers = (
{
layerId = m01;
shapes = (
{
closed = 1;
nodes = (
(608,800,l),
(663,700,l),
(663,461,l),
(348,461,l),
(348,700,l),
(403,800,l),
(30,800,l),
(116,650,l),
(116,150,l),
(30,0,l),
(404,0,l),
(348,103,l),
(348,297,l),
(663,297,l),
(663,103,l),
(607,0,l),
(981,0,l),
(895,150,l),
(895,650,l),
(981,800,l)
);
}
);
width = 1011;
}
);
unicode = 72;
},
{
glyphname = I;
lastChange = "2024-06-30 14:22:53 +0000";
layers = (
{
layerId = m01;
shapes = (
{
closed = 1;
nodes = (
(30,800,l),
(116,650,l),
(116,150,l),
(30,0,l),
(461,0,l),
(375,150,l),
(375,650,l),
(461,800,l)
);
}
);
width = 491;
}
);
metricLeft = H;
metricRight = H;
unicode = 73;
},
{
glyphname = J;
lastChange = "2025-04-18 17:41:34 +0000";
layers = (
{
layerId = m01;
shapes = (
{
closed = 1;
nodes = (
(708,649,l),
(796,800,l),
(390,800,l),
(476,649,l),
(476,278,ls),
(476,221,o),
(422,186,o),
(370,186,cs),
(316,186,o),
(262,228,o),
(262,280,c),
(332,403,l),
(30,402,l),
(30,296,ls),
(30,130,o),
(180,-5,o),
(377,-5,cs),
(560,-5,o),
(708,121,o),
(708,295,cs)
);
}
);
width = 826;
}
);
metricLeft = H;
metricRight = H;
unicode = 74;
},
{
glyphname = K;
lastChange = "2024-06-30 14:22:53 +0000";
layers = (
{
layerId = m01;
shapes = (
{
closed = 1;
nodes = (
(554,800,l),
(583,750,l),
(352,438,l),
(352,700,l),
(408,800,l),
(30,800,l),
(116,650,l),
(116,150,l),
(30,0,l),
(409,0,l),
(352,103,l),
(352,364,l),
(554,100,l),
(498,0,l),
(954,0,l),
(843,100,l),
(614,404,l),
(858,730,l),
(942,800,l)
);
}
);
width = 984;
}
);
metricLeft = H;
metricRight = H;
unicode = 75;
},
{
glyphname = L;
lastChange = "2025-04-18 15:51:42 +0000";
layers = (
{
layerId = m01;
shapes = (
{
closed = 1;
nodes = (
(30,800,l),
(117,650,l),
(117,150,l),
(30,0,l),
(719,0,l),
(835,200,l),
(372,200,l),
(372,650,l),
(458,800,l)
);
}
);
width = 865;
}
);
metricLeft = H;
metricRight = H;
unicode = 76;
},
{
glyphname = M;
lastChange = "2024-06-30 14:22:53 +0000";
layers = (
{
layerId = m01;
shapes = (
{
closed = 1;
nodes = (
(781,800,l),
(608,500,l),
(434,800,l),
(30,800,l),
(117,650,l),
(117,150,l),
(30,0,l),
(406,0,l),
(348,104,l),
(348,550,l),
(608,100,l),
(867,550,l),
(867,104,l),
(809,0,l),
(1185,0,l),
(1098,150,l),
(1098,650,l),
(1185,800,l)
);
}
);
width = 1215;
}
);
metricLeft = H;
metricRight = H;
unicode = 77;
},
{
glyphname = N;
lastChange = "2024-06-30 14:22:53 +0000";
layers = (
{
layerId = m01;
shapes = (
{
closed = 1;
nodes = (
(636,800,l),
(722,650,l),
(722,301,l),
(434,800,l),
(30,800,l),
(116,650,l),
(116,150,l),
(30,0,l),
(405,0,l),
(347,104,l),
(347,550,l),
(665,0,l),
(1012,0,l),
(953,99,l),
(953,650,l),
(1040,800,l)
);
}
);
width = 1070;
}
);
metricLeft = H;
metricRight = H;
unicode = 78;
},
{
glyphname = O;
lastChange = "2025-04-18 17:42:12 +0000";
layers = (
{
layerId = m01;
shapes = (
{
closed = 1;
nodes = (
(309,608,o),
(240,500,o),
(240,401,cs),
(240,301,o),
(309,193,o),
(459,193,cs),
(610,193,o),
(679,301,o),
(679,401,cs),
(679,500,o),
(610,608,o),
(459,608,cs)
);
},
{
closed = 1;
nodes = (
(30,647,o),
(222,818,o),
(459,818,cs),
(696,818,o),
(889,647,o),
(889,401,cs),
(889,154,o),
(696,-17,o),
(459,-17,cs),
(222,-17,o),
(30,154,o),
(30,401,cs)
);
}
);
width = 919;
}
);
metricLeft = H;
metricRight = H;
unicode = 79;
},
{
glyphname = P;
lastChange = "2024-06-30 14:22:53 +0000";
layers = (
{
layerId = m01;
shapes = (
{
closed = 1;
nodes = (
(405,0,l),
(348,103,l),
(348,200,l),
(522,200,ls),
(688,200,o),
(822,334,o),
(822,500,cs),
(822,666,o),
(688,800,o),
(522,800,cs),
(30,800,l),
(117,650,l),
(117,150,l),
(30,0,l)
);
},
{
closed = 1;
nodes = (
(356,620,l),
(476,620,ls),
(542,620,o),
(596,566,o),
(596,500,cs),
(596,434,o),
(542,380,o),
(476,380,cs),
(356,380,l)
);
}
);
width = 852;
}
);
metricLeft = H;
metricRight = H;
unicode = 80;
},
{
glyphname = Q;
lastChange = "2025-04-18 17:42:18 +0000";
layers = (
{
layerId = m01;
shapes = (
{
closed = 1;
nodes = (
(552,-17,o),
(637,9,o),
(707,56,c),
(773,-1,l),
(1004,-1,l),
(816,162,l),
(862,228,o),
(889,309,o),
(889,401,cs),
(889,647,o),
(696,818,o),
(459,818,cs),
(222,818,o),
(30,647,o),
(30,401,cs),
(30,154,o),
(222,-17,o),
(459,-17,cs)
);
},
{
closed = 1;
nodes = (
(353,191,o),
(238,256,o),
(238,401,cs),
(238,545,o),
(353,611,o),
(459,611,cs),
(566,611,o),
(681,545,o),
(681,401,cs),
(681,361,o),
(672,327,o),
(658,299,c),
(541,401,l),
(310,401,l),
(538,203,l),
(512,195,o),
(486,191,o),
(459,191,cs)
);
}
);
width = 1034;
}
);
metricLeft = H;
metricRight = H;
unicode = 81;
},
{
glyphname = R;
lastChange = "2025-04-18 17:29:23 +0000";
layers = (
{
layerId = m01;
shapes = (
{
closed = 1;
nodes = (
(411,0,l),
(353,103,l),
(353,330,l),
(586,0,l),
(937,0,l),
(805,103,l),
(643,311,l),
(746,342,o),
(821,435,o),
(821,550,cs),
(821,688,o),
(709,800,o),
(571,800,cs),
(30,800,l),
(116,650,l),
(116,150,l),
(30,0,l)
);
},
{
closed = 1;
nodes = (
(353,600,l),
(460,600,ls),
(516,600,o),
(560,555,o),
(560,500,cs),
(560,445,o),
(516,400,o),
(460,400,cs),
(353,400,l)
);
}
);
width = 967;
}
);
metricLeft = H;
metricRight = H;
unicode = 82;
},
{
glyphname = S;
lastChange = "2025-04-18 17:28:47 +0000";
layers = (
{
layerId = m01;
shapes = (
{
closed = 1;
nodes = (
(701,749,l),
(642,785,o),
(471,830,o),
(330,803,cs),
(219,782,o),
(133,689,o),
(119,606,cs),
(105,524,o),
(145,397,o),
(321,344,cs),
(448,306,o),
(600,309,o),
(587,244,cs),
(572,171,o),
(297,191,o),
(180,302,c),
(30,0,l),
(171,50,l),
(302,-4,o),
(489,-26,o),
(605,8,cs),
(735,45,o),
(805,106,o),
(820,206,cs),
(834,295,o),
(788,409,o),
(627,466,cs),
(476,519,o),
(322,509,o),
(330,570,cs),
(341,651,o),
(572,606,o),
(698,513,c),
(837,771,l)
);
}
);
width = 867;
}
);
metricLeft = H;
metricRight = H;
unicode = 83;
},
{
glyphname = T;
lastChange = "2025-04-18 17:56:12 +0000";
layers = (
{
layerId = m01;
shapes = (
{
closed = 1;
nodes = (
(30,800,l),
(203,500,l),
(261,600,l),
(434,600,l),
(434,150,l),
(347,0,l),
(752,0,l),
(664,150,l),
(664,600,l),
(838,599,l),
(896,500,l),
(1069,800,l)
);
}
);
width = 1099;
}
);
metricLeft = H;
metricRight = H;
unicode = 84;
},
{
glyphname = U;
lastChange = "2025-04-18 17:56:23 +0000";
layers = (
{
layerId = m01;
shapes = (
{
closed = 1;
nodes = (
(654,800,l),
(713,699,l),
(717,398,ls),
(717,274,o),
(619,217,o),
(526,217,cs),
(434,217,o),
(336,274,o),
(336,398,cs),
(340,699,l),
(399,800,l),
(30,800,l),
(116,650,l),
(116,389,ls),
(116,159,o),
(295,-10,o),
(526,-10,cs),
(753,-10,o),
(937,153,o),
(937,389,cs),
(937,650,l),
(1023,800,l)
);
}
);
width = 1053;
}
);
metricLeft = H;
metricRight = H;
unicode = 85;
},
{
glyphname = V;
kernRight = V;
lastChange = "2025-04-18 17:54:24 +0000";
layers = (
{
layerId = m01;
shapes = (
{
closed = 1;
nodes = (
(699,800,l),
(745,720,l),
(571,429,l),
(397,720,l),
(443,800,l),
(30,800,l),
(189,656,l),
(571,-10,l),
(952,656,l),
(1111,800,l)
);
}
);
width = 1141;
}
);
metricLeft = H;
metricRight = H;
unicode = 86;
},
{
glyphname = W;
kernRight = V;
lastChange = "2025-04-18 18:49:42 +0000";
layers = (
{
layerId = m01;
shapes = (
{
closed = 1;
nodes = (
(987,-10,l),
(1368,648,l),
(1514,800,l),
(1070,800,l),
(1118,720,l),
(950,430,l),
(772,709,l),
(594,430,l),
(426,720,l),
(474,800,l),
(30,800,l),
(176,648,l),
(557,-10,l),
(773,368,l)
);
}
);
width = 1538;
}
);
metricRight = H;
unicode = 87;
},
{
glyphname = X;
lastChange = "2025-04-18 17:56:27 +0000";
layers = (
{
layerId = m01;
shapes = (
{
closed = 1;
nodes = (
(607,800,l),
(665,700,l),
(567,586,l),
(468,700,l),
(526,800,l),
(30,800,l),
(180,698,l),
(422,419,l),
(145,100,l),
(30,0,l),
(468,0,l),
(434,100,l),
(567,253,l),
(699,100,l),
(666,0,l),
(1103,0,l),
(988,100,l),
(711,419,l),
(954,698,l),
(1103,800,l)
);
}
);
width = 1133;
}
);
metricLeft = H;
metricRight = H;
unicode = 88;
},
{
glyphname = Y;
lastChange = "2025-04-18 17:40:54 +0000";
layers = (
{
layerId = m01;
shapes = (
{
closed = 1;
nodes = (
(729,800,l),
(780,726,l),
(596,519,l),
(412,726,l),
(464,800,l),
(30,800,l),
(120,726,l),
(452,349,l),
(452,100,l),
(394,0,l),
(799,0,l),
(742,100,l),
(742,349,l),
(1073,726,l),
(1163,800,l)
);
}
);
width = 1193;
}
);
unicode = 89;
},
{
glyphname = Z;
lastChange = "2025-04-18 17:42:19 +0000";
layers = (
{
layerId = m01;
shapes = (
{
closed = 1;
nodes = (
(30,800,l),
(203,500,l),
(261,600,l),
(491,600,l),
(30,0,l),
(953,0,l),
(780,300,l),
(722,200,l),
(453,200,l),
(896,800,l)
);
}
);
width = 983;
}
);
metricLeft = H;
metricRight = H;
unicode = 90;
},
{
glyphname = a;
lastChange = "2025-04-18 20:03:45 +0000";
layers = (
{
layerId = m01;
shapes = (
{
closed = 1;
nodes = (
(437,143,l),
(437,0,l),
(726,0,l),
(639,150,l),
(639,450,l),
(726,600,l),
(352,600,ls),
(175,600,o),
(30,470,o),
(30,300,cs),
(30,130,o),
(175,0,o),
(352,0,c)
);
},
{
closed = 1;
nodes = (
(284,200,o),
(230,244,o),
(230,300,cs),
(230,356,o),
(284,400,o),
(352,400,cs),
(437,400,l),
(437,200,l),
(352,200,ls)
);
}
);
width = 756;
}
);
metricLeft = H;
metricRight = H;
unicode = 97;
},
{
glyphname = b;
lastChange = "2025-04-18 18:51:28 +0000";
layers = (
{
layerId = m01;
shapes = (
{
closed = 1;
nodes = (
(220,0,l),
(434,0,l),
(438,0,l),
(616,0,o),
(760,134,o),
(760,300,c),
(760,466,o),
(611,600,o),
(442,600,c),
(347,439,l),
(347,693,l),
(405,800,l),
(30,800,l),
(116,650,l),
(116,150,l),
(30,0,l)
);
},
{
closed = 1;
nodes = (
(347,400,l),
(438,400,l),
(504,400,o),
(560,354,o),
(560,300,c),
(560,246,o),
(504,200,o),
(438,200,c),
(347,200,l)
);
}
);
width = 790;
}
);
metricLeft = H;
metricRight = H;
unicode = 98;
},
{
glyphname = c;
kernLeft = o;
lastChange = "2025-04-18 17:54:12 +0000";
layers = (
{
layerId = m01;
shapes = (
{
closed = 1;
nodes = (
(494,265,l),
(465,225,o),
(412,195,o),
(357,195,c),
(285,195,o),
(229,242,o),
(229,301,c),
(229,360,o),
(285,406,o),
(357,406,c),
(533,406,l),
(649,600,l),
(357,600,l),
(176,600,o),
(30,473,o),
(30,300,c),
(30,127,o),
(176,-5,o),
(357,-5,c),
(448,-5,o),
(534,30,o),
(597,85,c)
);
}
);
width = 679;
}
);
metricLeft = H;
metricRight = H;
unicode = 99;
},
{
glyphname = d;
lastChange = "2025-04-18 18:53:59 +0000";
layers = (
{
layerId = m01;
shapes = (
{
closed = 1;
nodes = (
(356,0,l),
(443,152,l),
(443,0,l),
(760,0,l),
(674,150,l),
(674,650,l),
(760,800,l),
(385,800,l),
(443,693,l),
(443,600,l),
(352,600,l),
(174,600,o),
(30,466,o),
(30,300,c),
(30,134,o),
(174,0,o),
(352,0,c)
);
},
{
closed = 1;
nodes = (
(310,200,o),
(254,246,o),
(254,300,c),
(254,354,o),
(310,400,o),
(376,400,c),
(443,400,l),
(443,200,l),
(376,200,l)
);
}
);
width = 790;
}
);
metricLeft = H;
metricRight = H;
unicode = 100;
},
{
glyphname = e;
lastChange = "2025-04-18 20:03:48 +0000";
layers = (
{
layerId = m01;
shapes = (
{
closed = 1;
nodes = (
(490,-7,o),
(604,38,o),
(666,106,c),
(549,300,l),
(549,300,o),
(514,219,o),
(514,219,c),
(490,195,o),
(427,167,o),
(364,177,c),
(618,512,l),
(553,572,o),
(456,600,o),
(336,600,cs),
(152,600,o),
(30,445,o),
(30,316,cs),
(30,92,o),
(220,-7,o),
(368,-7,cs)
);
},
{
closed = 1;
nodes = (
(234,241,o),
(212,274,o),
(223,331,cs),
(232,379,o),
(299,457,o),
(411,422,c),
(256,221,l)
);
}
);
width = 696;
}
);
unicode = 101;
},
{
glyphname = f;
kernRight = a;
lastChange = "2025-04-18 18:10:53 +0000";
layers = (
{
layerId = m01;
shapes = (
{
closed = 1;
nodes = (
(380,805,o),
(220,658,o),
(220,476,c),
(220,431,l),
(131,431,l),
(30,255,l),
(220,255,l),
(220,155,l),
(133,0,l),
(500,0,l),
(434,105,l),
(433,255,l),
(579,255,l),
(683,431,l),
(431,431,l),
(430,476,l),
(430,540,o),
(498,595,o),
(577,595,c),
(647,595,o),
(706,554,o),
(721,501,c),
(837,702,l),
(772,765,o),
(680,805,o),
(577,805,c)
);
}
);
width = 867;
}
);
metricLeft = H;
metricRight = H;
unicode = 102;
},
{
glyphname = g;
lastChange = "2025-04-18 18:58:37 +0000";
layers = (
{
layerId = m01;
shapes = (
{
closed = 1;
nodes = (
(414,-200,l),
(545,-200,o),
(652,-97,o),
(652,42,c),
(652,131,o),
(618,194,o),
(563,237,c),
(584,273,o),
(596,315,o),
(596,360,c),
(596,379,o),
(593,397,o),
(589,414,c),
(702,600,l),
(529,600,l),
(497,555,l),
(452,589,o),
(394,610,o),
(331,610,c),
(182,610,o),
(66,498,o),
(66,360,c),
(66,222,o),
(174,110,o),
(331,110,c),
(370,110,l),
(422,110,o),
(430,73,o),
(430,56,c),
(430,24,o),
(407,3,o),
(360,0,c),
(203,0,l),
(175,50,l),
(30,-200,l)
);
},
{
closed = 1;
nodes = (
(274,281,o),
(237,312,o),
(237,360,c),
(237,404,o),
(278,439,o),
(331,439,c),
(383,439,o),
(424,404,o),
(424,360,c),
(424,312,o),
(387,281,o),
(331,281,c)
);
}
);
width = 732;
}
);
metricRight = H;
unicode = 103;
},
{
glyphname = h;
lastChange = "2025-04-18 18:57:04 +0000";
layers = (
{
layerId = m01;
shapes = (
{
closed = 1;
nodes = (
(502,0,l),
(854,0,l),
(768,150,l),
(768,356,l),
(768,518,o),
(640,600,o),
(507,600,c),
(447,600,o),
(394,589,o),
(348,571,c),
(348,693,l),
(406,800,l),
(30,800,l),
(117,650,l),
(117,150,l),
(30,0,l),
(348,0,l),
(348,357,l),
(389,388,o),
(437,400,o),
(466,400,c),
(510,400,o),
(560,360,o),
(560,308,c),
(560,96,l)
);
}
);
width = 884;
}
);
metricLeft = H;
metricRight = H;
unicode = 104;
},
{
glyphname = i;
lastChange = "2025-04-17 16:30:28 +0000";
layers = (
{
layerId = m01;
shapes = (
{
closed = 1;
nodes = (
(30,600,l),
(88,500,l),
(88,100,l),
(30,0,l),
(405,0,l),
(348,100,l),
(348,504,l),
(409,600,l)
);
},
{
closed = 1;
nodes = (
(108,800,l),
(212,619,l),
(315,800,l)
);
}
);
width = 439;
}
);
metricLeft = H;
metricRight = H;
unicode = 105;
},
{
glyphname = j;
lastChange = "2025-04-18 20:02:59 +0000";
layers = (
{
layerId = m01;
shapes = (
{
closed = 1;
nodes = (
(319,600,l),
(203,400,l),
(382,400,l),
(382,95,l),
(382,45,o),
(348,10,o),
(289,10,c),
(203,10,o),
(145,118,o),
(145,200,c),
(30,0,l),
(52,-74,o),
(125,-200,o),
(307,-200,c),
(573,-200,o),
(607,10,o),
(607,100,c),
(607,500,l),
(671,600,l)
);
},
{
closed = 1;
nodes = (
(379,800,l),
(483,619,l),
(586,800,l)
);
}
);
width = 693;
}
);
metricLeft = H;
metricRight = H;
unicode = 106;
},
{
glyphname = k;
kernRight = o;
lastChange = "2025-04-17 15:44:57 +0000";
layers = (
{
layerId = m01;
shapes = (
{
closed = 1;
nodes = (
(30,800,l),
(116,650,l),
(116,150,l),
(30,0,l),
(405,0,l),
(347,100,l),
(347,242,l),
(596,0,l),
(872,0,l),
(552,300,l),
(809,600,l),
(463,600,l),
(510,518,l),
(347,324,l),
(347,800,l)
);
}
);
width = 902;
}
);
metricLeft = H;
metricRight = H;
unicode = 107;
},
{
glyphname = l;
lastChange = "2025-04-18 20:03:19 +0000";
layers = (
{
layerId = m01;
shapes = (
{
closed = 1;
nodes = (
(30,800,l),
(116,650,l),
(116,0,l),
(466,0,l),
(350,200,l),
(350,800,l)
);
}
);
width = 496;
}
);
metricLeft = H;
metricRight = H;
unicode = 108;
},
{
glyphname = m;
lastChange = "2025-04-18 17:49:38 +0000";
layers = (
{
layerId = m01;
shapes = (
{
closed = 1;
nodes = (
(1022,100,l),
(1023,395,l),
(1023,501,o),
(932,600,o),
(820,600,c),
(739,600,o),
(668,577,o),
(614,535,c),
(577,574,o),
(525,600,o),
(468,600,c),
(413,600,o),
(362,589,o),
(319,569,c),
(319,600,l),
(30,600,l),
(116,450,l),
(116,150,l),
(30,0,l),
(319,0,l),
(319,361,l),
(337,379,o),
(360,391,o),
(387,391,c),
(437,391,o),
(468,355,o),
(468,319,c),
(468,0,l),
(729,0,l),
(670,99,l),
(671,361,l),
(689,379,o),
(712,391,o),
(739,391,c),
(789,391,o),
(820,355,o),
(820,319,c),
(820,0,l),
(1083,0,l)
);
}
);
width = 1113;
}
);
metricLeft = H;
metricRight = H;
unicode = 109;
},
{
glyphname = n;
lastChange = "2025-04-18 19:03:46 +0000";
layers = (
{
layerId = m01;
shapes = (
{
closed = 1;
nodes = (
(557,0,l),
(850,0,l),
(765,152,l),
(765,329,l),
(765,491,o),
(671,603,o),
(514,603,c),
(454,603,o),
(398,586,o),
(347,559,c),
(347,600,l),
(30,600,l),
(116,452,l),
(117,150,l),
(31,0,l),
(347,0,l),
(347,373,l),
(376,391,o),
(407,400,o),
(438,400,c),
(505,400,o),
(557,360,o),
(557,288,c)
);
}
);
width = 880;
}
);
metricLeft = H;
metricRight = H;
unicode = 110;
},
{
glyphname = o;
lastChange = "2025-04-18 20:04:22 +0000";
layers = (
{
layerId = m01;
shapes = (
{
closed = 1;
nodes = (
(556,-7,o),
(704,131,o),
(704,300,c),
(704,469,o),
(556,607,o),
(375,607,c),
(193,607,o),
(45,473,o),
(45,300,c),
(45,127,o),
(193,-7,o),
(375,-7,c)
);
},
{
closed = 1;
nodes = (
(305,178,o),
(250,230,o),
(250,296,c),
(250,363,o),
(305,414,o),
(375,414,c),
(442,414,o),
(500,359,o),
(500,296,c),
(500,232,o),
(442,178,o),
(375,178,c)
);
}
);
width = 749;
}
);
unicode = 111;
},
{
glyphname = p;
lastChange = "2025-04-18 19:29:09 +0000";
layers = (
{
layerId = m01;
shapes = (
{
closed = 1;
nodes = (
(352,-197,l),
(352,143,l),
(444,0,l),
(621,0,o),
(765,134,o),
(765,300,c),
(765,465,o),
(621,600,o),
(444,600,c),
(440,600,l),
(225,600,l),
(45,600,l),
(131,450,l),
(131,-47,l),
(45,-197,l)
);
},
{
closed = 1;
nodes = (
(352,400,l),
(419,400,l),
(485,400,o),
(541,354,o),
(541,300,c),
(541,245,o),
(485,200,o),
(419,200,c),
(352,200,l)
);
}
);
width = 795;
}
);
metricRight = H;
unicode = 112;
},
{
glyphname = q;
lastChange = "2025-04-18 19:02:09 +0000";
layers = (
{
layerId = m01;
shapes = (
{
closed = 1;
nodes = (
(435,143,l),
(435,-197,l),
(762,-197,l),
(644,-36,l),
(644,450,l),
(741,600,l),
(352,600,ls),
(174,600,o),
(30,466,o),
(30,300,cs),
(30,135,o),
(174,0,o),
(352,0,c)
);
},
{
closed = 1;
nodes = (
(310,200,o),
(254,246,o),
(254,300,cs),
(254,355,o),
(310,400,o),
(376,400,cs),
(435,400,l),
(435,200,l),
(376,200,ls)
);
}
);
width = 807;
}
);
metricLeft = H;
unicode = 113;
},
{
glyphname = r;
lastChange = "2025-04-18 17:58:00 +0000";
layers = (
{
layerId = m01;
shapes = (
{
closed = 1;
nodes = (
(461,603,o),
(389,560,o),
(348,500,c),
(348,600,l),
(30,600,l),
(117,450,l),
(117,150,l),
(30,0,l),
(348,0,l),
(348,256,l),
(348,335,o),
(425,400,o),
(520,400,c),
(530,400,o),
(539,399,o),
(548,398,c),
(605,324,l),
(726,519,l),
(684,570,o),
(617,603,o),
(543,603,c)
);
}
);
width = 756;
}
);
metricLeft = H;
metricRight = H;
unicode = 114;
},
{
glyphname = s;
lastChange = "2025-04-18 20:04:00 +0000";
layers = (
{
layerId = m01;
shapes = (
{
closed = 1;
nodes = (
(546,577,l),
(478,605,o),
(364,622,o),
(258,602,cs),
(161,585,o),
(114,534,o),
(98,461,cs),
(81,387,o),
(123,303,o),
(251,261,cs),
(330,236,o),
(440,236,o),
(433,190,cs),
(425,135,o),
(239,155,o),
(151,240,c),
(30,0,l),
(129,27,l),
(228,-8,o),
(379,-19,o),
(467,6,cs),
(565,35,o),
(616,83,o),
(628,158,cs),
(639,226,o),
(621,312,o),
(482,355,cs),
(367,390,o),
(272,387,o),
(272,432,cs),
(272,483,o),
(432,461,o),
(536,391,c),
(641,586,l)
);
}
);
width = 671;
}
);
metricLeft = H;
metricRight = H;
unicode = 115;
},
{
glyphname = t;
lastChange = "2025-04-18 20:04:04 +0000";
layers = (
{
layerId = m01;
shapes = (
{
closed = 1;
nodes = (
(382,450,l),
(555,450,l),
(642,600,l),
(382,600,l),
(382,799,l),
(30,450,l),
(150,447,l),
(150,308,l),
(150,133,o),
(298,-2,o),
(482,-2,c),
(498,-2,l),
(642,247,l),
(545,179,o),
(382,220,o),
(382,393,c)
);
}
);
width = 672;
}
);
metricLeft = H;
metricRight = H;
unicode = 116;
},
{
glyphname = u;
lastChange = "2025-04-18 20:02:43 +0000";
layers = (
{
layerId = m01;
shapes = (
{
closed = 1;
nodes = (
(850,0,l),
(764,151,l),
(763,452,l),
(849,600,l),
(533,600,l),
(533,230,l),
(504,212,o),
(473,202,o),
(442,202,c),
(375,202,o),
(323,242,o),
(323,314,c),
(323,600,l),
(30,600,l),
(115,450,l),
(115,274,l),
(115,112,o),
(208,-2,o),
(365,-2,c),
(424,-2,o),
(482,17,o),
(533,44,c),
(533,0,l)
);
}
);
width = 880;
}
);
metricLeft = H;
metricRight = H;
unicode = 117;
},
{
glyphname = v;
kernLeft = v;
kernRight = w;
lastChange = "2025-04-18 20:04:45 +0000";
layers = (
{
layerId = m01;
shapes = (
{
closed = 1;
nodes = (
(528,600,l),
(557,551,l),
(447,343,l),
(337,551,l),
(366,600,l),
(20,600,l),
(161,485,l),
(447,-14,l),
(733,485,l),
(874,600,l)
);
}
);
width = 914;
}
);
metricLeft = H;
metricRight = H;
unicode = 118;
},
{
glyphname = w;
kernLeft = v;
kernRight = v;
lastChange = "2025-04-18 19:28:09 +0000";
layers = (
{
layerId = m01;
shapes = (
{
closed = 1;
nodes = (
(772,600,l),
(801,550,l),
(685,350,l),
(570,550,l),
(455,350,l),
(339,550,l),
(368,600,l),
(30,600,l),
(149,481,l),
(425,-14,l),
(570,228,l),
(715,-14,l),
(992,481,l),
(1110,600,l)
);
}
);
width = 1140;
}
);
metricLeft = H;
metricRight = H;
unicode = 119;
},
{
glyphname = x;
kernRight = x;
lastChange = "2025-04-18 17:47:00 +0000";
layers = (
{
layerId = m01;
shapes = (
{
closed = 1;
nodes = (
(492,600,l),
(521,550,l),
(435,446,l),
(348,550,l),
(377,600,l),
(30,600,l),
(146,500,l),
(313,300,l),
(146,100,l),
(30,0,l),
(377,0,l),
(348,50,l),
(435,154,l),
(521,50,l),
(492,0,l),
(839,0,l),
(723,100,l),
(556,300,l),
(723,500,l),
(839,600,l)
);
}
);
width = 869;
}
);
metricLeft = H;
metricRight = H;
unicode = 120;
},
{
glyphname = y;
lastChange = "2025-04-18 17:53:30 +0000";
layers = (
{
layerId = m01;
shapes = (
{
closed = 1;
nodes = (
(542,-198,o),
(675,-76,o),
(675,123,c),
(675,500,l),
(732,600,l),
(414,600,l),
(444,550,l),
(444,338,l),
(444,285,o),
(402,256,o),
(360,256,c),
(297,256,o),
(271,290,o),
(271,338,c),
(271,550,l),
(300,600,l),
(30,600,l),
(88,500,l),
(88,283,l),
(88,161,o),
(188,85,o),
(348,85,c),
(390,85,o),
(415,91,o),
(444,107,c),
(444,19,o),
(366,-9,o),
(328,-9,c),
(289,-9,o),
(232,2,o),
(183,52,c),
(97,-98,l),
(138,-147,o),
(206,-198,o),
(328,-198,c)
);
}
);
width = 762;
}
);
metricLeft = H;
metricRight = H;
unicode = 121;
},
{
glyphname = z;
lastChange = "2025-04-18 15:33:49 +0000";
layers = (
{
layerId = m01;
shapes = (
{
closed = 1;
nodes = (
(30,600,l),
(160,376,l),
(203,450,l),
(417,450,l),
(32,0,l),
(782,0,l),
(638,250,l),
(593,173,l),
(383,173,l),
(756,600,l)
);
}
);
width = 812;
}
);
metricLeft = H;
metricRight = H;
unicode = 122;
},
{
glyphname = f_f_l;
lastChange = "2025-04-18 15:33:10 +0000";
layers = (
{
layerId = m01;
shapes = (
{
closed = 1;
nodes = (
(792,800,o),
(632,653,o),
(632,471,c),
(632,431,l),
(543,431,l),
(442,255,l),
(632,255,l),
(632,155,l),
(545,0,l),
(912,0,l),
(846,105,l),
(845,255,l),
(991,255,l),
(1095,431,l),
(843,431,l),
(842,471,l),
(842,535,o),
(910,590,o),
(989,590,c),
(1059,590,o),
(1118,549,o),
(1133,496,c),
(1249,697,l),
(1184,760,o),
(1092,800,o),
(989,800,c)
);
},
{
closed = 1;
nodes = (
(989,800,l),
(1201,650,l),
(1201,433,o),
(1201,217,o),
(1201,0,c),
(1551,0,l),
(1435,200,l),
(1435,800,l)
);
},
{
closed = 1;
nodes = (
(380,805,o),
(220,658,o),
(220,476,c),
(220,431,l),
(131,431,l),
(30,255,l),
(220,255,l),
(220,155,l),
(133,0,l),
(500,0,l),
(434,105,l),
(433,255,l),
(579,255,l),
(683,431,l),
(431,431,l),
(430,476,l),
(430,540,o),
(498,595,o),
(577,595,c),
(647,595,o),
(706,554,o),
(721,501,c),
(837,702,l),
(772,765,o),
(680,805,o),
(577,805,c)
);
}
);
width = 1581;
}
);
metricLeft = H;
metricRight = H;
},
{
glyphname = fl;
lastChange = "2025-04-18 15:36:24 +0000";
layers = (
{
layerId = m01;
shapes = (
{
closed = 1;
nodes = (
(500,0,l),
(434,105,l),
(433,255,l),
(579,255,l),
(683,431,l),
(431,431,l),
(430,471,ls),
(430,535,o),
(498,590,o),
(577,590,cs),
(647,590,o),
(706,549,o),
(721,496,c),
(789,614,l),
(789,0,l),
(1139,0,l),
(1023,200,l),
(1023,800,l),
(577,800,ls),
(380,800,o),
(220,653,o),
(220,471,cs),
(220,431,l),
(131,431,l),
(30,255,l),
(220,255,l),
(220,155,l),
(133,0,l)
);
}
);
width = 1169;
}
);
metricLeft = H;
metricRight = H;
unicode = 64258;
},
{
glyphname = zero;
lastChange = "2024-06-30 14:22:53 +0000";
layers = (
{
layerId = m01;
shapes = (
{
closed = 1;
nodes = (
(441,0,ls),
(668,0,o),
(853,164,o),
(853,400,cs),
(853,522,o),
(805,623,o),
(726,694,c),
(787,800,l),
(441,800,ls),
(214,800,o),
(30,636,o),
(30,400,cs),
(30,279,o),
(79,177,o),
(156,107,c),
(95,0,l)
);
},
{
closed = 1;
nodes = (
(242,324,o),
(232,363,o),
(232,400,cs),
(232,495,o),
(297,598,o),
(440,599,c),
(263,291,l)
);
},
{
closed = 1;
nodes = (
(620,510,l),
(642,477,o),
(652,438,o),
(652,400,cs),
(652,305,o),
(586,201,o),
(442,201,c)
);
}
);
width = 883;
}
);
metricLeft = H;
metricRight = H;
unicode = 48;
},
{
glyphname = one;
lastChange = "2024-06-30 14:22:53 +0000";
layers = (
{
layerId = m01;
shapes = (
{
closed = 1;
nodes = (
(403,841,l),
(30,577,l),
(144,527,l),
(144,150,l),
(59,1,l),
(518,1,l),
(403,199,l)
);
}
);
width = 548;
}
);
metricLeft = H;
metricRight = H;
unicode = 49;
},
{
glyphname = two;
lastChange = "2025-04-18 17:50:14 +0000";
layers = (
{
layerId = m01;
shapes = (
{
closed = 1;
nodes = (
(876,0,l),
(701,302,l),
(643,201,l),
(536,201,l),
(643,302,o),
(719,452,o),
(719,578,cs),
(719,690,o),
(620,820,o),
(416,820,cs),
(260,820,o),
(153,759,o),
(78,663,c),
(215,434,l),
(251,551,l),
(316,625,o),
(444,632,o),
(474,560,cs),
(541,399,o),
(236,109,o),
(30,0,c)
);
}
);
width = 906;
}
);
metricLeft = H;
metricRight = H;
unicode = 50;
},
{
glyphname = three;
lastChange = "2024-06-30 14:22:53 +0000";
layers = (
{
layerId = m01;
shapes = (
{
closed = 1;
nodes = (
(78,77,l),
(147,23,o),
(238,-10,o),
(338,-10,cs),
(548,-10,o),
(718,106,o),
(718,313,cs),
(718,409,o),
(667,494,o),
(585,552,c),
(728,800,l),
(30,800,l),
(189,524,l),
(241,612,l),
(387,611,l),
(287,438,l),
(302,443,o),
(319,447,o),
(338,447,cs),
(419,447,o),
(485,387,o),
(485,313,cs),
(485,236,o),
(419,181,o),
(338,181,cs),
(269,181,o),
(211,222,o),
(195,279,c)
);
}
);
width = 758;
}
);
metricLeft = H;
metricRight = H;
unicode = 51;
},
{
glyphname = four;
lastChange = "2024-06-30 14:22:53 +0000";
layers = (
{
layerId = m01;
shapes = (
{
closed = 1;
nodes = (
(442,800,l),
(481,737,l),
(486,399,l),
(320,399,l),
(435,600,l),
(261,600,l),
(30,200,l),
(488,200,l),
(489,150,l),
(403,0,l),
(839,0,l),
(720,150,l),
(720,200,l),
(781,200,l),
(897,399,l),
(720,399,l),
(720,650,l),
(839,800,l)
);
}
);
width = 927;
}
);
metricLeft = H;
metricRight = H;
unicode = 52;
},
{
glyphname = five;
lastChange = "2024-06-30 14:22:53 +0000";
layers = (
{
layerId = m01;
shapes = (
{
closed = 1;
nodes = (
(452,0,ls),
(609,0,o),
(740,114,o),
(740,271,cs),
(740,554,o),
(439,554,o),
(319,528,c),
(319,630,l),
(521,630,l),
(561,580,l),
(687,800,l),
(30,800,l),
(113,650,l),
(123,334,l),
(291,417,o),
(513,399,o),
(513,297,cs),
(513,241,o),
(466,200,o),
(392,200,cs),
(261,200,l),
(203,297,l),
(30,0,l)
);
}
);
width = 770;
}
);
metricLeft = H;
metricRight = H;
unicode = 53;
},
{
glyphname = six;
lastChange = "2025-04-17 15:05:48 +0000";
layers = (
{
layerId = m01;
shapes = (
{
closed = 1;
nodes = (
(567,0,o),
(740,94,o),
(740,284,cs),
(740,452,o),
(624,554,o),
(426,554,cs),
(345,554,o),
(268,528,o),
(212,463,c),
(221,566,o),
(324,649,o),
(437,649,c),
(490,643,o),
(553,600,o),
(573,577,c),
(691,765,l),
(280,899,o),
(30,721,o),
(30,400,cs),
(30,166,o),
(195,0,o),
(411,0,cs)
);
},
{
closed = 1;
nodes = (
(338,194,o),
(289,238,o),
(289,302,cs),
(289,365,o),
(338,409,o),
(399,409,cs),
(460,409,o),
(510,365,o),
(510,302,cs),
(510,238,o),
(460,194,o),
(399,194,cs)
);
}
);
width = 770;
}
);
metricLeft = H;
metricRight = H;
unicode = 54;
},
{
glyphname = seven;
lastChange = "2024-06-30 14:22:53 +0000";
layers = (
{
layerId = m01;
shapes = (
{
closed = 1;
nodes = (
(30,800,l),
(216,477,l),
(307,625,l),
(506,625,l),
(145,0,l),
(549,0,l),
(491,100,l),
(896,800,l)
);
}
);
width = 926;
}
);
metricLeft = H;
metricRight = H;
unicode = 55;
},
{
glyphname = eight;
lastChange = "2024-06-30 14:22:53 +0000";
layers = (
{
layerId = m01;
shapes = (
{
closed = 1;
nodes = (
(671,-9,o),
(819,83,o),
(819,255,cs),
(819,363,o),
(760,439,o),
(655,481,c),
(703,514,o),
(731,560,o),
(731,617,cs),
(731,739,o),
(622,811,o),
(425,811,cs),
(227,811,o),
(119,739,o),
(119,617,cs),
(119,560,o),
(146,514,o),
(194,481,c),
(89,439,o),
(30,363,o),
(30,255,cs),
(30,83,o),
(178,-9,o),
(425,-9,cs)
);
},
{
closed = 1;
nodes = (
(345,211,o),
(292,245,o),
(292,300,cs),
(292,355,o),
(345,388,o),
(424,388,cs),
(425,388,ls),
(504,388,o),
(557,355,o),
(557,300,cs),
(557,245,o),
(504,211,o),
(425,211,cs),
(424,211,ls)
);
},
{
closed = 1;
nodes = (
(363,537,o),
(321,566,o),
(321,606,cs),
(321,646,o),
(363,675,o),
(425,675,cs),
(486,675,o),
(528,646,o),
(528,606,cs),
(528,566,o),
(486,537,o),
(425,537,cs)
);
}
);
width = 849;
}
);
metricLeft = H;
metricRight = H;
unicode = 56;
},
{
glyphname = nine;
lastChange = "2025-04-17 15:11:26 +0000";
layers = (
{
layerId = m01;
shapes = (
{
closed = 1;
nodes = (
(544,0,o),
(729,138,o),
(729,456,cs),
(729,665,o),
(612,810,o),
(361,810,cs),
(204,810,o),
(54,717,o),
(54,552,cs),
(54,338,o),
(232,283,o),
(339,283,cs),
(408,283,o),
(471,317,o),
(518,358,c),
(518,258,o),
(426,170,o),
(252,179,cs),
(232,180,o),
(189,219,o),
(134,294,c),
(30,110,l),
(81,45,o),
(218,0,o),
(317,0,cs)
);
},
{
closed = 1;
nodes = (
(323,442,o),
(271,477,o),
(271,537,cs),
(271,600,o),
(323,632,o),
(376,632,cs),
(428,632,o),
(480,600,o),
(480,537,cs),
(480,477,o),
(428,442,o),
(376,442,cs)
);
}
);
width = 759;
}
);
metricLeft = H;
metricRight = H;
unicode = 57;
},
{
glyphname = period;
lastChange = "2025-04-18 15:44:20 +0000";
layers = (
{
layerId = m01;
shapes = (
{
closed = 1;
nodes = (
(349,0,l),
(203,250,l),
(60,0,l)
);
}
);
width = 379;
}
);
metricRight = H;
unicode = 46;
},
{
glyphname = comma;
lastChange = "2025-04-18 15:44:13 +0000";
layers = (
{
layerId = m01;
shapes = (
{
closed = 1;
nodes = (
(215,-104,o),
(318,0,o),
(319,128,cs),
(319,197,l),
(30,197,l),
(145,-3,l),
(87,-105,l)
);
}
);
width = 349;
}
);
metricLeft = H;
metricRight = H;
unicode = 44;
},
{
glyphname = colon;
lastChange = "2025-04-17 15:12:31 +0000";
layers = (
{
layerId = m01;
shapes = (
{
closed = 1;
nodes = (
(30,600,l),
(176,350,l),
(319,600,l)
);
},
{
closed = 1;
nodes = (
(319,0,l),
(173,250,l),
(30,0,l)
);
}
);
width = 349;
}
);
metricRight = H;
unicode = 58;
},
{
glyphname = semicolon;
lastChange = "2025-04-17 15:12:57 +0000";
layers = (
{
layerId = m01;
shapes = (
{
closed = 1;
nodes = (
(215,-104,o),
(318,0,o),
(319,128,cs),
(319,197,l),
(30,197,l),
(145,-3,l),
(87,-105,l)
);
},
{
closed = 1;
nodes = (
(319,600,l),
(30,600,l),
(176,350,l)
);
}
);
width = 349;
}
);
metricLeft = H;
metricRight = H;
unicode = 59;
},
{
glyphname = exclam;
lastChange = "2025-04-18 15:38:50 +0000";
layers = (
{
layerId = m01;
shapes = (
{
closed = 1;
nodes = (
(117,649,l),
(174,285,l),
(347,285,l),
(405,649,l),
(492,799,l),
(30,800,l)
);
},
{
closed = 1;
nodes = (
(110,0,l),
(415,0,l),
(264,265,l)
);
}
);
width = 522;
}
);
metricLeft = H;
metricRight = H;
unicode = 33;
},
{
glyphname = exclamdown;
lastChange = "2025-04-17 15:14:16 +0000";
layers = (
{
layerId = m01;
shapes = (
{
closed = 1;
nodes = (
(405,151,l),
(348,550,l),
(175,550,l),
(117,151,l),
(30,1,l),
(492,0,l)
);
},
{
closed = 1;
nodes = (
(376,800,l),
(146,800,l),
(260,600,l)
);
}
);
width = 522;
}
);
metricLeft = H;
metricRight = H;
unicode = 161;
},
{
glyphname = question;
lastChange = "2025-04-18 17:55:11 +0000";
layers = (
{
layerId = m01;
shapes = (
{
closed = 1;
nodes = (
(428,350,l),
(569,350,ls),
(694,350,o),
(794,451,o),
(794,575,cs),
(794,699,o),
(693,800,o),
(569,800,cs),
(30,799,l),
(185,531,l),
(223,600,l),
(540,600,ls),
(581,600,o),
(603,581,o),
(603,551,cs),
(603,518,o),
(581,500,o),
(540,500,cs),
(203,500,l),
(366,217,l)
);
},
{
closed = 1;
nodes = (
(477,0,l),
(367,193,l),
(257,0,l)
);
}
);
width = 824;
}
);
metricLeft = H;
metricRight = H;
unicode = 63;
},
{
glyphname = bullet;
lastChange = "2025-04-17 15:15:19 +0000";
layers = (
{
layerId = m01;
shapes = (
{
closed = 1;
nodes = (
(30,485,l),
(176,235,l),
(319,485,l)
);
}
);
width = 349;
}
);
metricLeft = H;
metricRight = H;
unicode = 8226;
},
{
glyphname = asterisk;
lastChange = "2024-06-30 14:22:53 +0000";
layers = (
{
layerId = m01;
shapes = (
{
closed = 1;
nodes = (
(246,368,l),
(246,468,l),
(333,418,l),
(376,493,l),
(289,543,l),
(376,593,l),
(333,668,l),
(246,618,l),
(246,718,l),
(160,718,l),
(160,618,l),
(73,668,l),
(30,593,l),
(117,543,l),
(30,493,l),
(73,418,l),
(160,468,l),
(160,368,l)
);
}
);
width = 406;
}
);
metricLeft = H;
metricRight = H;
unicode = 42;
},
{
glyphname = numbersign;
lastChange = "2025-04-17 15:17:58 +0000";
layers = (
{
layerId = m01;
shapes = (
{
closed = 1;
nodes = (
(916,800,l),
(785,571,l),
(652,571,l),
(785,800,l),
(523,800,l),
(391,571,l),
(227,571,l),
(161,457,l),
(324,457,l),
(259,343,l),
(95,343,l),
(30,229,l),
(193,229,l),
(62,0,l),
(321,0,l),
(453,229,l),
(586,229,l),
(454,0,l),
(714,0,l),
(845,229,l),
(1010,229,l),
(1076,343,l),
(911,343,l),
(978,457,l),
(1142,457,l),
(1207,571,l),
(1044,571,l),
(1177,800,l)
);
},
{
closed = 1;
nodes = (
(586,457,l),
(718,457,l),
(652,343,l),
(520,343,l)
);
}
);
width = 1237;
}
);
unicode = 35;
},
{
glyphname = slash;
lastChange = "2025-04-17 15:18:26 +0000";
layers = (
{
layerId = m01;
shapes = (
{
closed = 1;
nodes = (
(233,0,l),
(695,800,l),
(492,800,l),
(30,0,l)
);
}
);
width = 725;
}
);
metricLeft = H;
unicode = 47;
},
{
glyphname = backslash;
lastChange = "2025-04-17 15:18:45 +0000";
layers = (
{
layerId = m01;
shapes = (
{
closed = 1;
nodes = (
(492,0,l),
(695,0,l),
(233,800,l),
(30,800,l)
);
}
);
width = 725;
}
);
metricRight = H;
unicode = 92;
},
{
glyphname = periodcentered.loclCAT.case;
lastChange = "2025-04-17 15:19:12 +0000";
layers = (
{
layerId = m01;
shapes = (
{
closed = 1;
nodes = (
(319,275,l),
(173,525,l),
(30,275,l)
);
}
);
width = 349;
}
);
metricLeft = H;
metricRight = H;
},
{
glyphname = hyphen;
lastChange = "2025-04-17 15:20:32 +0000";
layers = (
{
layerId = m01;
shapes = (
{
closed = 1;
nodes = (
(30,257,l),
(511,257,l),
(603,417,l),
(122,417,l)
);
}
);
width = 633;
}
);
metricLeft = H;
metricRight = H;
unicode = 45;
},
{
glyphname = endash;
lastChange = "2025-04-17 15:20:23 +0000";
layers = (
{
layerId = m01;
shapes = (
{
closed = 1;
nodes = (
(30,257,l),
(745,257,l),
(837,417,l),
(122,417,l)
);
}
);
width = 867;
}
);
metricLeft = H;
metricRight = H;
unicode = 8211;
},
{
glyphname = emdash;
lastChange = "2025-04-17 15:20:42 +0000";
layers = (
{
layerId = m01;
shapes = (
{
closed = 1;
nodes = (
(30,257,l),
(879,257,l),
(971,417,l),
(122,417,l)
);
}
);
width = 1001;
}
);
metricLeft = H;
metricRight = H;
unicode = 8212;
},
{
glyphname = underscore;
lastChange = "2024-06-30 14:22:53 +0000";
layers = (
{
layerId = m01;
shapes = (
{
closed = 1;
nodes = (
(30,0,l),
(879,0,l),
(971,160,l),
(122,160,l)
);
}
);
width = 1001;
}
);
metricLeft = H;
metricRight = H;
unicode = 95;
},
{
glyphname = parenleft;
lastChange = "2024-06-30 14:22:53 +0000";
layers = (
{
layerId = m01;
shapes = (
{
closed = 1;
nodes = (
(30,186,o),
(66,17,o),
(125,-100,c),
(311,-100,l),
(254,17,o),
(218,186,o),
(218,375,cs),
(218,563,o),
(254,732,o),
(311,849,c),
(125,849,l),
(66,732,o),
(30,563,o),
(30,375,cs)
);
}
);
width = 341;
}
);
metricLeft = H;
metricRight = H;
unicode = 40;
},
{
glyphname = parenright;
lastChange = "2024-06-30 14:22:53 +0000";
layers = (
{
layerId = m01;
shapes = (
{
closed = 1;
nodes = (
(311,563,o),
(275,732,o),
(216,849,c),
(30,849,l),
(87,732,o),
(123,563,o),
(123,375,cs),
(123,186,o),
(87,17,o),
(30,-100,c),
(216,-100,l),
(275,17,o),
(311,186,o),
(311,375,cs)
);
}
);
width = 341;
}
);
metricLeft = H;
metricRight = H;
unicode = 41;
},
{
glyphname = braceleft;
lastChange = "2024-06-30 14:22:53 +0000";
layers = (
{
layerId = m01;
shapes = (
{
closed = 1;
nodes = (
(196,898,l),
(196,648,l),
(30,398,l),
(196,148,l),
(196,-102,l),
(364,-102,l),
(447,148,l),
(280,398,l),
(447,648,l),
(364,898,l)
);
}
);
width = 477;
}
);
metricLeft = H;
metricRight = H;
unicode = 123;
},
{
glyphname = braceright;
lastChange = "2024-06-30 14:22:53 +0000";
layers = (
{
layerId = m01;
shapes = (
{
closed = 1;
nodes = (
(30,648,l),
(197,398,l),
(30,148,l),
(113,-102,l),
(281,-102,l),
(281,148,l),
(447,398,l),
(281,648,l),
(281,898,l),
(113,898,l)
);
}
);
width = 477;
}
);
metricLeft = H;
metricRight = H;
unicode = 125;
},
{
glyphname = bracketleft;
lastChange = "2024-06-30 14:22:53 +0000";
layers = (
{
layerId = m01;
shapes = (
{
closed = 1;
nodes = (
(30,902,l),
(30,-98,l),
(381,-98,l),
(381,73,l),
(201,73,l),
(201,731,l),
(381,731,l),
(381,902,l)
);
}
);
width = 411;
}
);
metricLeft = H;
metricRight = H;
unicode = 91;
},
{
glyphname = bracketright;
lastChange = "2024-06-30 14:22:53 +0000";
layers = (
{
layerId = m01;
shapes = (
{
closed = 1;
nodes = (
(30,731,l),
(210,731,l),
(210,73,l),
(30,73,l),
(30,-98,l),
(381,-98,l),
(381,902,l),
(30,902,l)
);
}
);
width = 411;
}
);
metricLeft = H;
metricRight = H;
unicode = 93;
},
{
glyphname = quotesinglbase;
lastChange = "2025-04-04 23:11:31 +0000";
layers = (
{
layerId = m01;
shapes = (
{
closed = 1;
nodes = (
(257,264,l),
(30,264,l),
(30,196,l),
(145,0,l),
(257,196,l)
);
}
);
width = 287;
}
);
metricLeft = H;
metricRight = H;
unicode = 8218;
},
{
glyphname = quotedblbase;
lastChange = "2025-04-04 23:12:09 +0000";
layers = (
{
layerId = m01;
shapes = (
{
closed = 1;
nodes = (
(257,264,l),
(30,264,l),
(30,196,l),
(145,0,l),
(257,196,l)
);
},
{
closed = 1;
nodes = (
(517,264,l),
(290,264,l),
(290,196,l),
(405,0,l),
(517,196,l)
);
}
);
width = 547;
}
);
metricLeft = H;
unicode = 8222;
},
{
glyphname = quotedblleft;
lastChange = "2025-04-17 15:21:45 +0000";
layers = (
{
layerId = m01;
shapes = (
{
closed = 1;
nodes = (
(544,600,l),
(659,800,l),
(370,800,l),
(370,731,ls),
(371,603,o),
(474,499,o),
(602,498,c)
);
},
{
closed = 1;
nodes = (
(204,600,l),
(319,800,l),
(30,800,l),
(30,731,ls),
(31,603,o),
(134,499,o),
(262,498,c)
);
}
);
width = 689;
}
);
metricLeft = H;
metricRight = H;
unicode = 8220;
},
{
glyphname = quotedblright;
lastChange = "2025-04-18 15:51:45 +0000";
layers = (
{
layerId = m01;
shapes = (
{
closed = 1;
nodes = (
(555,499,o),
(658,603,o),
(659,731,cs),
(659,800,l),
(370,800,l),
(485,600,l),
(427,498,l)
);
},
{
closed = 1;
nodes = (
(215,499,o),
(318,603,o),
(319,731,cs),
(319,800,l),
(30,800,l),
(145,600,l),
(87,498,l)
);
}
);
width = 689;
}
);
metricLeft = H;
metricRight = H;
unicode = 8221;
},
{
glyphname = quoteleft;
lastChange = "2025-04-17 15:22:14 +0000";
layers = (
{
layerId = m01;
shapes = (
{
closed = 1;
nodes = (
(204,600,l),
(319,800,l),
(30,800,l),
(30,731,ls),
(31,603,o),
(134,499,o),
(262,498,c)
);
}
);
width = 349;
}
);
metricLeft = H;
metricRight = H;
unicode = 8216;
},
{
glyphname = quoteright;
lastChange = "2025-04-18 15:51:37 +0000";
layers = (
{
layerId = m01;
shapes = (
{
closed = 1;
nodes = (
(215,499,o),
(318,603,o),
(319,731,cs),
(319,800,l),
(30,800,l),
(145,600,l),
(87,498,l)
);
}
);
width = 349;
}
);
metricLeft = H;
metricRight = H;
unicode = 8217;
},
{
glyphname = guillemetleft;
lastChange = "2025-04-17 15:22:39 +0000";
layers = (
{
layerId = m01;
shapes = (
{
closed = 1;
nodes = (
(268,556,l),
(30,369,l),
(268,183,l),
(268,281,l),
(155,369,l),
(268,458,l)
);
},
{
closed = 1;
nodes = (
(478,556,l),
(240,369,l),
(478,183,l),
(478,281,l),
(365,369,l),
(478,458,l)
);
}
);
width = 508;
}
);
metricLeft = H;
metricRight = H;
unicode = 171;
},
{
glyphname = guillemetright;
lastChange = "2025-04-17 15:22:59 +0000";
layers = (
{
layerId = m01;
shapes = (
{
closed = 1;
nodes = (
(353,370,l),
(240,282,l),
(240,184,l),
(478,370,l),
(240,557,l),
(240,459,l)
);
},
{
closed = 1;
nodes = (
(143,370,l),
(30,282,l),
(30,184,l),
(268,370,l),
(30,557,l),
(30,459,l)
);
}
);
width = 508;
}
);
metricLeft = H;
metricRight = H;
unicode = 187;
},
{
glyphname = guilsinglleft;
lastChange = "2025-04-17 15:23:07 +0000";
layers = (
{
layerId = m01;
shapes = (
{
closed = 1;
nodes = (
(268,557,l),
(30,370,l),
(268,184,l),
(268,282,l),
(155,370,l),
(268,459,l)
);
}
);
width = 298;
}
);
metricLeft = H;
metricRight = H;
unicode = 8249;
},
{
glyphname = guilsinglright;
lastChange = "2025-04-17 15:23:16 +0000";
layers = (
{
layerId = m01;
shapes = (
{
closed = 1;
nodes = (
(143,370,l),
(30,282,l),
(30,184,l),
(268,370,l),
(30,557,l),
(30,459,l)
);
}
);
width = 298;
}
);
metricLeft = H;
metricRight = H;
unicode = 8250;
},
{
glyphname = quotedbl;
lastChange = "2025-04-17 15:23:25 +0000";
layers = (
{
layerId = m01;
shapes = (
{
closed = 1;
nodes = (
(531,800,l),
(304,800,l),
(304,732,l),
(419,536,l),
(531,732,l)
);
},
{
closed = 1;
nodes = (
(257,800,l),
(30,800,l),
(30,732,l),
(145,536,l),
(257,732,l)
);
}
);
width = 561;
}
);
metricLeft = H;
metricRight = H;
unicode = 34;
},
{
glyphname = quotesingle;
lastChange = "2025-04-17 15:23:32 +0000";
layers = (
{
layerId = m01;
shapes = (
{
closed = 1;
nodes = (
(257,800,l),
(30,800,l),
(30,732,l),
(145,536,l),
(257,732,l)
);
}
);
width = 287;
}
);
metricLeft = H;
metricRight = H;
unicode = 39;
},
{
glyphname = at;
lastChange = "2024-06-30 14:22:53 +0000";
layers = (
{
layerId = m01;
shapes = (
{
closed = 1;
nodes = (
(465,297,l),
(408,200,l),
(289,200,o),
(192,288,o),
(192,401,c),
(192,516,o),
(289,602,o),
(408,602,c),
(657,602,l),
(600,502,l),
(600,301,l),
(843,300,l),
(849,331,o),
(853,364,o),
(853,400,c),
(853,659,o),
(669,800,o),
(441,800,c),
(214,800,o),
(30,636,o),
(30,400,c),
(30,164,o),
(214,0,o),
(441,0,c),
(601,0,o),
(740,68,o),
(808,200,c),
(465,200,l)
);
},
{
closed = 1;
nodes = (
(326,364,o),
(362,335,o),
(408,335,c),
(465,335,l),
(465,469,l),
(408,469,l),
(362,469,o),
(326,439,o),
(326,401,c)
);
}
);
width = 883;
}
);
metricLeft = H;
metricRight = H;
unicode = 64;
},
{
glyphname = ampersand;
lastChange = "2025-04-17 15:24:24 +0000";
layers = (
{
layerId = m01;
shapes = (
{
closed = 1;
nodes = (
(470,152,l),
(312,152,ls),
(255,152,o),
(200,191,o),
(200,254,cs),
(200,334,o),
(266,356,o),
(293,356,c),
(355,247,l),
(502,502,l),
(384,502,l),
(297,649,l),
(469,649,l),
(529,549,l),
(674,799,l),
(39,800,l),
(219,491,l),
(115,461,o),
(30,397,o),
(30,251,cs),
(30,105,o),
(152,0,o),
(290,0,cs),
(732,0,l),
(560,303,l)
);
}
);
width = 762;
}
);
metricLeft = H;
metricRight = H;
unicode = 38;
},
{
glyphname = paragraph;
lastChange = "2025-04-17 15:25:19 +0000";
layers = (
{
layerId = m01;
shapes = (
{
closed = 1;
nodes = (
(30,335,o),
(174,200,o),
(352,200,cs),
(371,200,l),
(371,800,l),
(352,800,ls),
(174,800,o),
(30,666,o),
(30,500,cs)
);
},
{
closed = 1;
nodes = (
(718,-109,l),
(600,52,l),
(600,650,l),
(697,800,l),
(475,800,l),
(475,-109,l)
);
}
);
width = 748;
}
);
unicode = 182;
},
{
glyphname = copyright;
lastChange = "2025-04-17 15:30:40 +0000";
layers = (
{
layerId = m01;
shapes = (
{
closed = 1;
nodes = (
(366,368,o),
(464,465,o),
(464,585,c),
(464,704,o),
(366,802,o),
(247,802,cs),
(127,802,o),
(30,704,o),
(30,585,cs),
(30,465,o),
(127,368,o),
(247,368,cs)
);
},
{
closed = 1;
nodes = (
(281,445,o),
(319,460,o),
(346,484,c),
(301,562,l),
(289,544,o),
(266,532,o),
(242,532,c),
(211,532,o),
(187,552,o),
(187,577,c),
(187,603,o),
(211,623,o),
(242,623,c),
(318,623,l),
(369,709,l),
(242,709,l),
(164,709,o),
(100,652,o),
(100,577,c),
(100,502,o),
(164,445,o),
(242,445,c)
);
},
{
closed = 1;
nodes = (
(146,403,o),
(65,484,o),
(65,585,cs),
(65,685,o),
(146,767,o),
(247,767,cs),
(347,767,o),
(429,685,o),
(429,585,c),
(429,484,o),
(347,403,o),
(247,403,cs)
);
}
);
width = 494;
}
);
unicode = 169;
},
{
glyphname = registered;
lastChange = "2025-04-17 15:25:40 +0000";
layers = (
{
layerId = m01;
shapes = (
{
closed = 1;
nodes = (
(366,368,o),
(464,465,o),
(464,585,cs),
(464,704,o),
(366,802,o),
(247,802,cs),
(127,802,o),
(30,704,o),
(30,585,cs),
(30,465,o),
(127,368,o),
(247,368,cs)
);
},
{
closed = 1;
nodes = (
(236,480,l),
(219,509,l),
(219,573,l),
(285,480,l),
(384,480,l),
(358,494,l),
(300,568,l),
(330,576,o),
(351,602,o),
(351,635,cs),
(351,674,o),
(319,705,o),
(280,705,cs),
(128,705,l),
(152,663,l),
(152,523,l),
(128,480,l)
);
},
{
closed = 1;
nodes = (
(219,649,l),
(249,649,ls),
(264,649,o),
(277,636,o),
(277,621,cs),
(277,605,o),
(264,593,o),
(249,593,c),
(219,593,l)
);
},
{
closed = 1;
nodes = (
(146,403,o),
(65,484,o),
(65,585,cs),
(65,685,o),
(146,767,o),
(247,767,cs),
(347,767,o),
(429,685,o),
(429,585,cs),
(429,484,o),
(347,403,o),
(247,403,cs)
);
}
);
width = 494;
}
);
unicode = 174;
},
{
glyphname = trademark;
lastChange = "2024-06-30 14:22:53 +0000";
layers = (
{
layerId = m01;
shapes = (
{
closed = 1;
nodes = (
(30,800,l),
(73,725,l),
(88,750,l),
(131,750,l),
(131,638,l),
(109,600,l),
(210,600,l),
(188,638,l),
(188,750,l),
(232,750,l),
(247,725,l),
(290,800,l)
);
},
{
closed = 1;
nodes = (
(483,800,l),
(440,725,l),
(396,800,l),
(295,800,l),
(317,763,l),
(317,638,l),
(295,600,l),
(389,600,l),
(374,626,l),
(374,738,l),
(440,625,l),
(504,738,l),
(504,626,l),
(490,600,l),
(584,600,l),
(563,638,l),
(563,763,l),
(584,800,l)
);
}
);
width = 614;
}
);
metricLeft = H;
metricRight = H;
unicode = 8482;
},
{
glyphname = degree;
lastChange = "2025-04-04 22:53:22 +0000";
layers = (
{
layerId = m01;
shapes = (
{
attr = {
fill = 1;
};
closed = 1;
nodes = (
(233,486,o),
(285,537,o),
(285,601,cs),
(285,664,o),
(233,716,o),
(170,716,cs),
(106,716,o),
(55,664,o),
(55,601,cs),
(55,537,o),
(106,486,o),
(170,486,cs)
);
},
{
attr = {
fill = "1";
};
closed = 1;
nodes = (
(129,527,o),
(96,560,o),
(96,601,cs),
(96,641,o),
(129,675,o),
(170,675,cs),
(210,675,o),
(244,641,o),
(244,601,cs),
(244,560,o),
(210,527,o),
(170,527,cs)
);
}
);
width = 340;
}
);
unicode = 176;
},
{
glyphname = bar;
lastChange = "2024-06-30 14:22:53 +0000";
layers = (
{
layerId = m01;
shapes = (
{
closed = 1;
nodes = (
(30,-65,l),
(143,-65,l),
(143,867,l),
(30,867,l)
);
}
);
width = 173;
}
);
metricLeft = H;
metricRight = H;
unicode = 124;
},
{
glyphname = cent;
lastChange = "2024-06-30 14:22:53 +0000";
layers = (
{
layerId = m01;
shapes = (
{
closed = 1;
nodes = (
(393,334,l),
(370,301,o),
(329,278,o),
(286,278,c),
(230,278,o),
(186,316,o),
(186,361,c),
(186,408,o),
(230,444,o),
(286,444,c),
(424,444,l),
(515,600,l),
(286,600,l),
(146,600,o),
(30,496,o),
(30,361,c),
(30,226,o),
(146,122,o),
(286,122,c),
(358,122,o),
(424,149,o),
(474,193,c)
);
},
{
closed = 1;
nodes = (
(243,66,l),
(320,66,l),
(320,671,l),
(243,671,l)
);
}
);
width = 545;
}
);
metricLeft = H;
metricRight = H;
unicode = 162;
},
{
glyphname = dollar;
lastChange = "2024-06-30 14:22:53 +0000";
layers = (
{
layerId = m01;
shapes = (
{
closed = 1;
nodes = (
(546,0,l),
(489,100,l),
(630,100,ls),
(727,100,o),
(805,178,o),
(805,275,cs),
(805,372,o),
(727,450,o),
(630,450,cs),
(489,450,l),
(489,550,l),
(670,550,l),
(719,480,l),
(835,700,l),
(489,700,l),
(546,800,l),
(319,800,l),
(377,700,l),
(245,700,ls),
(148,700,o),
(70,622,o),
(70,525,cs),
(70,428,o),
(148,350,o),
(245,350,cs),
(377,350,l),
(378,250,l),
(197,250,l),
(150,318,l),
(30,100,l),
(378,100,l),
(319,-2,l)
);
},
{
closed = 1;
nodes = (
(252,450,o),
(230,472,o),
(230,500,cs),
(230,528,o),
(252,550,o),
(280,550,cs),
(377,550,l),
(377,450,l),
(280,450,ls)
);
},
{
closed = 1;
nodes = (
(489,350,l),
(585,350,ls),
(613,350,o),
(635,328,o),
(635,300,cs),
(635,273,o),
(613,250,o),
(585,250,cs),
(489,250,l)
);
}
);
width = 865;
}
);
metricLeft = H;
metricRight = H;
unicode = 36;
},
{
glyphname = euro;
lastChange = "2024-06-30 14:22:53 +0000";
layers = (
{
layerId = m01;
shapes = (
{
closed = 1;
nodes = (
(583,78,o),
(676,119,o),
(741,185,c),
(670,321,l),
(631,266,o),
(563,232,o),
(478,232,c),
(376,232,o),
(293,307,o),
(293,401,c),
(293,494,o),
(376,570,o),
(478,570,c),
(554,570,o),
(627,530,o),
(656,471,c),
(731,627,l),
(667,686,o),
(577,723,o),
(478,723,c),
(284,723,o),
(126,579,o),
(126,401,c),
(126,222,o),
(284,78,o),
(478,78,c)
);
},
{
closed = 1;
nodes = (
(492,297,l),
(533,369,l),
(72,369,l),
(30,297,l)
);
},
{
closed = 1;
nodes = (
(508,409,l),
(549,481,l),
(87,481,l),
(46,409,l)
);
}
);
width = 771;
}
);
metricLeft = H;
metricRight = H;
unicode = 8364;
},
{
glyphname = yen;
lastChange = "2024-06-30 14:22:53 +0000";
layers = (
{
layerId = m01;
shapes = (
{
closed = 1;
nodes = (
(158,348,l),
(123,285,l),
(787,285,l),
(823,348,l)
);
},
{
closed = 1;
nodes = (
(158,232,l),
(123,169,l),
(787,169,l),
(823,232,l)
);
},
{
closed = 1;
nodes = (
(599,660,l),
(636,607,l),
(472,428,l),
(309,607,l),
(347,660,l),
(30,660,l),
(97,607,l),
(367,295,l),
(367,112,l),
(325,40,l),
(620,40,l),
(579,112,l),
(579,295,l),
(850,607,l),
(915,660,l)
);
}
);
width = 945;
}
);
metricLeft = H;
metricRight = H;
unicode = 165;
},
{
glyphname = plus;
lastChange = "2025-04-17 15:31:27 +0000";
layers = (
{
layerId = m01;
shapes = (
{
closed = 1;
nodes = (
(262,306,o),
(495,307,o),
(727,306,c),
(793,494,l),
(97,494,l),
(30,306,l)
);
},
{
closed = 1;
nodes = (
(505,52,l),
(505,285,o),
(505,517,o),
(505,748,c),
(317,748,l),
(317,52,l)
);
}
);
width = 823;
}
);
metricLeft = H;
metricRight = H;
unicode = 43;
},
{
glyphname = minus;
lastChange = "2025-04-17 15:31:40 +0000";
layers = (
{
layerId = m01;
shapes = (
{
closed = 1;
nodes = (
(727,276,l),
(793,464,l),
(97,464,l),
(30,276,l)
);
}
);
width = 823;
}
);
unicode = 8722;
},
{
glyphname = multiply;
lastChange = "2025-04-17 15:32:00 +0000";
layers = (
{
layerId = m01;
shapes = (
{
closed = 1;
nodes = (
(426,203,l),
(426,128,l),
(676,128,l),
(279,537,l),
(279,613,l),
(30,613,l)
);
},
{
closed = 1;
nodes = (
(427,613,l),
(427,537,l),
(30,128,l),
(280,128,l),
(280,203,l),
(676,613,l)
);
}
);
width = 706;
}
);
unicode = 215;
},
{
glyphname = divide;
lastChange = "2025-04-17 15:32:10 +0000";
layers = (
{
layerId = m01;
shapes = (
{
closed = 1;
nodes = (
(727,283,l),
(793,471,l),
(97,471,l),
(30,283,l)
);
},
{
closed = 1;
nodes = (
(439,16,o),
(480,56,o),
(480,106,cs),
(480,154,o),
(439,195,o),
(391,195,cs),
(341,195,o),
(301,154,o),
(301,106,cs),
(301,56,o),
(341,16,o),
(391,16,cs)
);
},
{
closed = 1;
nodes = (
(485,546,o),
(526,586,o),
(526,636,cs),
(526,684,o),
(485,725,o),
(437,725,cs),
(387,725,o),
(347,684,o),
(347,636,cs),
(347,586,o),
(387,546,o),
(437,546,cs)
);
}
);
width = 823;
}
);
metricLeft = H;
metricRight = H;
unicode = 247;
},
{
glyphname = equal;
lastChange = "2025-04-17 15:32:23 +0000";
layers = (
{
layerId = m01;
shapes = (
{
closed = 1;
nodes = (
(150,619,l),
(83,431,l),
(315,431,o),
(448,432,o),
(680,431,c),
(746,619,l)
);
},
{
closed = 1;
nodes = (
(97,309,l),
(30,121,l),
(262,121,o),
(395,122,o),
(627,121,c),
(693,309,l)
);
}
);
width = 776;
}
);
metricLeft = H;
metricRight = H;
unicode = 61;
},
{
glyphname = greater;
lastChange = "2025-04-17 15:32:47 +0000";
layers = (
{
layerId = m01;
shapes = (
{
closed = 1;
nodes = (
(200,370,l),
(30,237,l),
(30,90,l),
(388,370,l),
(30,650,l),
(30,503,l)
);
}
);
width = 418;
}
);
metricLeft = H;
metricRight = H;
unicode = 62;
},
{
glyphname = less;
lastChange = "2025-04-17 15:33:04 +0000";
layers = (
{
layerId = m01;
shapes = (
{
closed = 1;
nodes = (
(388,650,l),
(30,370,l),
(388,90,l),
(388,237,l),
(218,370,l),
(388,503,l)
);
}
);
width = 418;
}
);
metricLeft = H;
metricRight = H;
unicode = 60;
},
{
glyphname = asciitilde;
lastChange = "2024-06-30 14:22:53 +0000";
layers = (
{
layerId = m01;
shapes = (
{
closed = 1;
nodes = (
(87,353,o),
(174,384,o),
(295,343,cs),
(435,296,o),
(552,305,o),
(639,384,c),
(639,574,l),
(552,495,o),
(435,486,o),
(295,533,cs),
(174,574,o),
(87,543,o),
(30,495,c),
(30,305,l)
);
}
);
width = 669;
}
);
metricLeft = H;
metricRight = H;
unicode = 126;
},
{
glyphname = asciicircum;
lastChange = "2025-04-17 15:33:32 +0000";
layers = (
{
layerId = m01;
shapes = (
{
closed = 1;
nodes = (
(30,492,l),
(188,492,l),
(308,611,l),
(428,492,l),
(586,492,l),
(308,769,l)
);
}
);
width = 616;
}
);
metricLeft = H;
metricRight = H;
unicode = 94;
},
{
glyphname = percent;
lastChange = "2025-04-17 15:33:52 +0000";
layers = (
{
layerId = m01;
shapes = (
{
closed = 1;
nodes = (
(333,33,l),
(65,33,l),
(509,722,l),
(777,722,l)
);
},
{
closed = 1;
nodes = (
(209,495,o),
(261,547,o),
(261,611,cs),
(261,674,o),
(209,726,o),
(145,726,cs),
(82,726,o),
(30,674,o),
(30,611,cs),
(30,547,o),
(82,495,o),
(145,495,cs)
);
},
{
closed = 1;
nodes = (
(637,33,o),
(585,85,o),
(585,149,cs),
(585,212,o),
(637,264,o),
(700,264,cs),
(764,264,o),
(816,212,o),
(816,149,cs),
(816,85,o),
(764,33,o),
(700,33,cs)
);
}
);
width = 846;
}
);
metricLeft = H;
metricRight = H;
unicode = 37;
},
{
glyphname = grave;
lastChange = "2025-04-17 15:34:05 +0000";
layers = (
{
layerId = m01;
shapes = (
{
closed = 1;
nodes = (
(177,513,l),
(350,513,l),
(203,768,l),
(30,768,l)
);
}
);
width = 380;
}
);
unicode = 96;
},
{
glyphname = acute;
lastChange = "2025-04-17 15:34:27 +0000";
layers = (
{
layerId = m01;
shapes = (
{
closed = 1;
nodes = (
(177,768,l),
(30,513,l),
(203,513,l),
(350,768,l)
);
}
);
width = 380;
}
);
unicode = 180;
},
{
glyphname = tilde;
lastChange = "2025-04-17 15:36:29 +0000";
layers = (
{
layerId = m01;
shapes = (
{
closed = 1;
nodes = (
(86,484,o),
(152,487,o),
(201,487,cs),
(265,487,o),
(345,420,o),
(414,420,cs),
(499,420,o),
(589,461,o),
(614,492,c),
(614,314,l),
(566,283,o),
(473,248,o),
(414,248,cs),
(331,248,o),
(265,315,o),
(197,315,cs),
(115,315,o),
(52,283,o),
(30,251,c),
(30,434,l)
);
}
